HIERARCHY
ROOT hip
{
  OFFSET 0 0 0
  CHANNELS 6 Xposition Yposition Zposition Zrotation Yrotation Xrotation
  JOINT abdomen
  {
    OFFSET 0 20.6881 -0.73152
    CHANNELS 3 Zrotation Xrotation Yrotation
    JOINT chest
    {
      OFFSET 0 11.7043 -0.48768
      CHANNELS 3 Zrotation Xrotation Yrotation
      JOINT neck
      {
        OFFSET 0 22.1894 -2.19456
        CHANNELS 3 Zrotation Xrotation Yrotation
        JOINT head
        {
          OFFSET -0.24384 7.07133 1.2192
          CHANNELS 3 Zrotation Xrotation Yrotation
          JOINT leftEye
          {
            OFFSET 4.14528 8.04674 8.04672
            CHANNELS 3 Zrotation Xrotation Yrotation
            End Site
            {
              OFFSET 1 0 0
            }
          }
          JOINT rightEye
          {
            OFFSET -3.6576 8.04674 8.04672
            CHANNELS 3 Zrotation Xrotation Yrotation
            End Site
            {
              OFFSET 1 0 0
            }
          }
        }
      }
      JOINT rCollar
      {
        OFFSET -2.68224 19.2634 -4.8768
        CHANNELS 3 Zrotation Xrotation Yrotation
        JOINT rShldr
        {
          OFFSET -8.77824 -1.95073 1.46304
          CHANNELS 3 Zrotation Xrotation Yrotation
          JOINT rForeArm
          {
            OFFSET -28.1742 -1.7115 0.48768
            CHANNELS 3 Zrotation Xrotation Yrotation
            JOINT rHand
            {
              OFFSET -22.5879 0.773209 7.07136
              CHANNELS 3 Zrotation Xrotation Yrotation
              JOINT rThumb1
              {
                OFFSET -1.2192 -0.487915 3.41376
                CHANNELS 3 Zrotation Xrotation Yrotation
                JOINT rThumb2
                {
                  OFFSET -3.37035 -0.52449 3.41376
                  CHANNELS 3 Zrotation Xrotation Yrotation
                  End Site
                  {
                    OFFSET -1.78271 -1.18214 1.43049
                  }
                }
              }
              JOINT rIndex1
              {
                OFFSET -7.75947 0.938293 5.60832
                CHANNELS 3 Zrotation Xrotation Yrotation
                JOINT rIndex2
                {
                  OFFSET -2.54057 -0.884171 1.56538
                  CHANNELS 3 Zrotation Xrotation Yrotation
                  End Site
                  {
                    OFFSET -1.62519 -0.234802 1.16502
                  }
                }
              }
              JOINT rMid1
              {
                OFFSET -8.24714 1.18213 3.41376
                CHANNELS 3 Zrotation Xrotation Yrotation
                JOINT rMid2
                {
                  OFFSET -3.10165 -0.590103 1.0647
                  CHANNELS 3 Zrotation Xrotation Yrotation
                  End Site
                  {
                    OFFSET -2.48547 -0.328903 0.83742
                  }
                }
              }
              JOINT rRing1
              {
                OFFSET -8.82822 0.546677 1.51678
                CHANNELS 3 Zrotation Xrotation Yrotation
                JOINT rRing2
                {
                  OFFSET -2.60934 -0.819778 -0.0198488
                  CHANNELS 3 Zrotation Xrotation Yrotation
                  End Site
                  {
                    OFFSET -2.33842 -0.294052 0.168128
                  }
                }
              }
              JOINT rPinky1
              {
                OFFSET -8.27202 -0.0477905 -0.4584
                CHANNELS 3 Zrotation Xrotation Yrotation
                JOINT rPinky2
                {
                  OFFSET -1.82734 -0.647385 -0.700984
                  CHANNELS 3 Zrotation Xrotation Yrotation
                  End Site
                  {
                    OFFSET -1.69225 -0.51767 -0.607171
                  }
                }
              }
            }
          }
        }
      }
      JOINT lCollar
      {
        OFFSET 2.68224 19.2634 -4.8768
        CHANNELS 3 Zrotation Xrotation Yrotation
        JOINT lShldr
        {
          OFFSET 8.77824 -1.95073 1.46304
          CHANNELS 3 Zrotation Xrotation Yrotation
          JOINT lForeArm
          {
            OFFSET 28.1742 -1.7115 0.48768
            CHANNELS 3 Zrotation Xrotation Yrotation
            JOINT lHand
            {
              OFFSET 22.5879 0.773209 7.07136
              CHANNELS 3 Zrotation Xrotation Yrotation
              JOINT lThumb1
              {
                OFFSET 1.2192 -0.487915 3.41376
                CHANNELS 3 Zrotation Xrotation Yrotation
                JOINT lThumb2
                {
                  OFFSET 3.37035 -0.52449 3.41376
                  CHANNELS 3 Zrotation Xrotation Yrotation
                  End Site
                  {
                    OFFSET 1.78271 -1.18214 1.43049
                  }
                }
              }
              JOINT lIndex1
              {
                OFFSET 7.75947 0.938293 5.60832
                CHANNELS 3 Zrotation Xrotation Yrotation
                JOINT lIndex2
                {
                  OFFSET 2.54057 -0.884171 1.56538
                  CHANNELS 3 Zrotation Xrotation Yrotation
                  End Site
                  {
                    OFFSET 1.62519 -0.234802 1.16502
                  }
                }
              }
              JOINT lMid1
              {
                OFFSET 8.24714 1.18213 3.41376
                CHANNELS 3 Zrotation Xrotation Yrotation
                JOINT lMid2
                {
                  OFFSET 3.10165 -0.590103 1.0647
                  CHANNELS 3 Zrotation Xrotation Yrotation
                  End Site
                  {
                    OFFSET 2.48547 -0.328903 0.83742
                  }
                }
              }
              JOINT lRing1
              {
                OFFSET 8.82822 0.546677 1.51678
                CHANNELS 3 Zrotation Xrotation Yrotation
                JOINT lRing2
                {
                  OFFSET 2.60934 -0.819778 -0.0198488
                  CHANNELS 3 Zrotation Xrotation Yrotation
                  End Site
                  {
                    OFFSET 2.33842 -0.294052 0.168128
                  }
                }
              }
              JOINT lPinky1
              {
                OFFSET 8.27202 -0.0477905 -0.4584
                CHANNELS 3 Zrotation Xrotation Yrotation
                JOINT lPinky2
                {
                  OFFSET 1.82734 -0.647385 -0.700984
                  CHANNELS 3 Zrotation Xrotation Yrotation
                  End Site
                  {
                    OFFSET 1.69225 -0.51767 -0.607171
                  }
                }
              }
            }
          }
        }
      }
    }
  }
  JOINT rButtock
  {
    OFFSET -8.77824 4.35084 1.2192
    CHANNELS 3 Zrotation Xrotation Yrotation
    JOINT rThigh
    {
      OFFSET 0 -1.70687 -2.19456
      CHANNELS 3 Zrotation Xrotation Yrotation
      JOINT rShin
      {
        OFFSET 0 -36.8199 0.73152
        CHANNELS 3 Zrotation Xrotation Yrotation
        JOINT rFoot
        {
          OFFSET 0.73152 -45.1104 -5.12064
          CHANNELS 3 Zrotation Xrotation Yrotation
          End Site
          {
            OFFSET -1.1221 -3.69964 12.103
          }
        }
      }
    }
  }
  JOINT lButtock
  {
    OFFSET 8.77824 4.35084 1.2192
    CHANNELS 3 Zrotation Xrotation Yrotation
    JOINT lThigh
    {
      OFFSET 0 -1.70687 -2.19456
      CHANNELS 3 Zrotation Xrotation Yrotation
      JOINT lShin
      {
        OFFSET 0 -36.8199 0.73152
        CHANNELS 3 Zrotation Xrotation Yrotation
        JOINT lFoot
        {
          OFFSET -0.73152 -45.1104 -5.12064
          CHANNELS 3 Zrotation Xrotation Yrotation
          End Site
          {
            OFFSET 1.1221 -3.69964 12.103
          }
        }
      }
    }
  }
}
MOTION
Frames:	4
Frame Time:	0.00833333
272.86 83.282 -17.6621 0.0 0.0 0.0 -2.96294 0.00183635 -0.0799172 -0.81647 0.0169096 -0.141255 1.97661e-14 -2.38542e-15 -4.47265e-16 5.99305e-14 -6.36111e-15 -1.59183e-15 -0.0 0.0 0.0 -0.0 0.0 0.0 9.83967e-15 1.44429e-16 4.96962e-17 2.10691e-13 3.19919e-15 -3.97569e-15 3.59457e-12 -9.52179e-13 -1.59028e-13 4.09572e-11 1.67774e-12 -9.44625e-13 9.6632e-11 1.57573e-12 -2.37269e-12 1.66878e-10 2.72255e-12 -4.10769e-12 9.6636e-11 1.57636e-12 -2.38224e-12 7.73091 5.47488 0.417314 9.66338e-11 1.57557e-12 -2.36951e-12 2.90554 0.965183 0.102902 9.66389e-11 1.57577e-12 -2.3719e-12 10.2786 0.731801 0.0259123 9.66282e-11 1.57835e-12 -2.36633e-12 2.22167 -0.733487 -0.20892 9.84067e-15 1.42294e-16 -3.47873e-16 2.0569e-13 3.27995e-15 -5.36719e-15 3.57554e-12 1.18456e-12 -1.27222e-13 4.09939e-11 -4.6046e-13 -9.50986e-13 9.66735e-11 1.57249e-12 -2.36633e-12 1.66952e-10 2.71619e-12 -4.08781e-12 9.66694e-11 1.57398e-12 -2.35997e-12 -7.73091 5.47488 -0.417314 9.66725e-11 1.57278e-12 -2.37269e-12 -2.90554 0.965183 -0.102902 9.6668e-11 1.57268e-12 -2.36872e-12 -10.2786 0.731801 -0.0259123 9.66759e-11 1.57239e-12 -2.37905e-12 -2.22167 -0.733487 0.20892 -2.03217e-16 0.0 -3.88251e-19 -1.7717 -1.93398 0.0122065 -0.00867248 -2.07864 -0.0712806 -0.478215 3.99976 0.135343 2.03217e-16 0.0 3.88251e-19 -2.72755 -9.04339 0.303161 -0.00827346 10.7978 -0.214965 0.537331 -1.7672 -0.024092
279.543 82.6212 -23.6341 -132.772 85.489 -135.492 -2.19103 0.79546 -0.0841702 -1.35676 1.10637 -0.162687 0.529505 3.33205 0.189465 0.307405 -9.40653 0.461706 -0.0 0.0 0.0 -0.0 0.0 0.0 6.88712e-15 -1.28041e-13 1.69278e-16 23.1819 4.48216 0.524048 -3.63231 -1.54989 5.77899 0.00394721 1.39369 0.195661 6.58175e-10 2.4213e-10 -2.08132e-09 1.12631e-09 4.1868e-10 -3.60071e-09 6.5818e-10 2.42129e-10 -2.08132e-09 7.73091 5.47488 0.417314 6.58178e-10 2.42129e-10 -2.08132e-09 2.90554 0.965183 0.102902 6.58183e-10 2.4213e-10 -2.08132e-09 10.2786 0.731801 0.0259123 6.58171e-10 2.42131e-10 -2.08131e-09 2.22167 -0.733487 -0.20892 6.8901e-15 -1.28051e-13 -2.04608e-16 -22.4531 4.47481 -1.58049 2.96743 -1.16886 -4.8115 -0.0321579 -3.97962 0.554436 6.87516e-10 -1.5752e-10 2.38788e-09 1.16741e-09 -2.71016e-10 4.13196e-09 6.87511e-10 -1.57518e-10 2.38789e-09 -7.73091 5.47488 -0.417314 6.87515e-10 -1.57518e-10 2.38787e-09 -2.90554 0.965183 -0.102902 6.87509e-10 -1.57519e-10 2.38788e-09 -10.2786 0.731801 -0.0259123 6.87519e-10 -1.57519e-10 2.38787e-09 -2.22167 -0.733487 0.20892 -2.03217e-16 0.0 -3.88251e-19 -0.754256 -3.09273 0.194488 0.0275407 6.39322 0.123248 -1.06207 -2.60822 -3.76856 2.03217e-16 0.0 3.88251e-19 -0.977192 -7.06094 1.37056 -0.0290135 14.1347 -0.262581 0.709751 -5.50742 1.58731
279.546 82.6228 -23.6375 -132.94 85.4929 -135.676 -1.37486 1.63312 -0.0882742 -1.92693 2.25802 -0.185339 1.06527 6.85445 0.391653 0.804941 -19.349 0.992287 -0.0 0.0 0.0 -0.0 0.0 0.0 3.20844e-15 -2.95505e-13 -7.0817e-16 47.5977 9.21901 1.08879 -7.1343 -3.1359 11.902 -0.00224197 2.86701 0.402894 1.254e-09 5.01849e-10 -4.29298e-09 2.14429e-09 8.67749e-10 -7.42688e-09 1.254e-09 5.01846e-10 -4.29298e-09 7.73091 5.47488 0.417314 1.254e-09 5.01846e-10 -4.29298e-09 2.90554 0.965183 0.102902 1.254e-09 5.01847e-10 -4.29298e-09 10.2786 0.731801 0.0259123 1.25399e-09 5.01847e-10 -4.29297e-09 2.22167 -0.733487 -0.20892 3.21511e-15 -2.95524e-13 -1.05915e-15 -45.9177 9.19857 -3.2827 5.89253 -2.37746 -9.90554 0.0183845 -8.18767 1.14983 1.30731e-09 -3.44993e-10 4.92295e-09 2.21667e-09 -5.93866e-10 8.51852e-09 1.3073e-09 -3.44991e-10 4.92296e-09 -7.73091 5.47488 -0.417314 1.30731e-09 -3.44991e-10 4.92296e-09 -2.90554 0.965183 -0.102902 1.3073e-09 -3.44992e-10 4.92295e-09 -10.2786 0.731801 -0.0259123 1.30731e-09 -3.44991e-10 4.92295e-09 -2.22167 -0.733487 0.20892 -2.03217e-16 0.0 -3.88251e-19 0.32951 -4.31867 0.38854 0.00147812 15.349 0.339396 -2.66611 -9.51328 -7.99738 2.03217e-16 0.0 3.88251e-19 0.792551 -4.96496 2.49117 -0.0445281 17.662 -0.31545 1.1238 -9.45029 3.32204
279.547 82.6231 -23.6333 -132.778 85.4784 -135.518 -0.646866 2.38271 -0.0927319 -2.43487 3.28527 -0.205799 1.52154 9.99571 0.57618 1.42905 -28.2117 1.55075 -0.0 0.0 0.0 -0.0 0.0 0.0 9.82029e-16 -3.84411e-13 4.0844e-16 69.2937 13.4419 1.61149 -9.9725 -4.4608 17.3849 -0.0167788 4.18087 0.588375 1.78126e-09 7.2324e-10 -6.23921e-09 3.04518e-09 1.2506e-09 -1.07939e-08 1.78127e-09 7.23236e-10 -6.2392e-09 7.73091 5.47488 0.417314 1.78127e-09 7.23237e-10 -6.23921e-09 2.90554 0.965183 0.102902 1.78127e-09 7.23237e-10 -6.2392e-09 10.2786 0.731801 0.0259123 1.78126e-09 7.23237e-10 -6.23919e-09 2.22167 -0.733487 -0.20892 9.88945e-16 -3.84436e-13 8.19208e-17 -66.602 13.383 -4.85928 8.3194 -3.40781 -14.4576 0.138894 -11.9343 1.69596 1.8692e-09 -4.75704e-10 7.16836e-09 3.16834e-09 -8.1848e-10 1.24041e-08 1.86919e-09 -4.75702e-10 7.16838e-09 -7.73091 5.47488 -0.417314 1.8692e-09 -4.75701e-10 7.16837e-09 -2.90554 0.965183 -0.102902 1.86919e-09 -4.75703e-10 7.16836e-09 -10.2786 0.731801 -0.0259123 1.86921e-09 -4.75701e-10 7.16836e-09 -2.22167 -0.733487 0.20892 -2.03217e-16 0.0 -3.88251e-19 1.30285 -5.41003 0.560714 -0.0840212 23.336 0.55534 -4.98894 -15.5114 -12.0075 2.03217e-16 0.0 3.88251e-19 2.30186 -3.09605 3.48681 -0.0525076 20.8082 -0.365411 1.69945 -12.948 4.91332
